<?xml version="1.0" encoding="UTF-8"?>
<svg version="1.1" xmlns="http://www.w3.org/2000/svg" width="988" height="548">
<path d="M0 0 C326.04 0 652.08 0 988 0 C988 180.84 988 361.68 988 548 C661.96 548 335.92 548 0 548 C0 367.16 0 186.32 0 0 Z " fill="#8bc45f" transform="translate(0,0)"/>
<path d="M0 0 C0.8769992 -0.00453111 1.75399841 -0.00906223 2.65757334 -0.01373065 C5.60783827 -0.02643077 8.55791992 -0.02475067 11.50820923 -0.02310181 C13.61874124 -0.02908355 15.72927106 -0.03588827 17.83979797 -0.04345703 C23.58152012 -0.06116019 29.32318269 -0.06581422 35.06492949 -0.0670886 C39.8538427 -0.06898511 44.64274195 -0.07633977 49.4316498 -0.08343279 C60.72784735 -0.09973073 72.024013 -0.10460046 83.32022095 -0.10317993 C94.98263372 -0.1019781 106.64486154 -0.12308507 118.30722749 -0.15466726 C128.31153848 -0.18079645 138.31578894 -0.19154864 148.32013381 -0.19026911 C154.29901284 -0.18975849 160.27772759 -0.19549674 166.25657272 -0.21662521 C171.87904608 -0.23595104 177.50119749 -0.23617077 183.12368202 -0.22159195 C185.18888759 -0.21949572 187.25411302 -0.22425289 189.31928444 -0.23631287 C192.13568251 -0.25169624 194.95096089 -0.24250299 197.76733398 -0.22705078 C198.99724896 -0.24248147 198.99724896 -0.24248147 200.2520107 -0.25822389 C204.04852546 -0.21209817 206.26250563 0.10893106 209.49460793 2.17333031 C213.13540336 5.95508172 212.64145288 9.34695424 212.60830688 14.33773804 C212.60618446 15.53207962 212.60618446 15.53207962 212.60401917 16.75054932 C212.59841408 19.29787934 212.58586077 21.84512201 212.57315063 24.39242554 C212.56813629 26.11768469 212.56357327 27.84294521 212.55947876 29.56820679 C212.54844301 33.80131345 212.531175 38.03435467 212.51065063 42.26742554 C213.23437866 42.38134644 213.95810669 42.49526733 214.70376587 42.61264038 C230.17790527 45.20607157 243.16824764 53.59789318 252.51065063 66.26742554 C263.11244377 81.87811669 265.3641384 97.34022947 263.07315063 115.79086304 C260.3558436 128.46030709 253.73114924 139.31274311 244.51065063 148.26742554 C243.97053345 148.82816772 243.43041626 149.38890991 242.87393188 149.96664429 C237.46756182 155.15512538 230.34386172 158.3580793 223.51065063 161.26742554 C222.85943237 161.54771606 222.20821411 161.82800659 221.53726196 162.11679077 C214.78272057 164.70728665 208.11792509 164.81605331 200.94815063 164.95492554 C199.74867798 164.98908569 198.54920532 165.02324585 197.31338501 165.05844116 C194.3792338 165.14027008 191.445357 165.20963184 188.51065063 165.26742554 C188.19426636 165.90132202 187.87788208 166.53521851 187.5519104 167.18832397 C175.84070607 190.51329812 175.84070607 190.51329812 167.51065063 200.26742554 C166.48971313 201.54553101 166.48971313 201.54553101 165.44815063 202.84945679 C156.75932922 213.24729271 145.4585128 221.13975136 132.51065063 225.26742554 C131.85065063 225.26742554 131.19065063 225.26742554 130.51065063 225.26742554 C130.51065063 240.11742554 130.51065063 254.96742554 130.51065063 270.26742554 C136.45065063 271.58742554 142.39065063 272.90742554 148.51065063 274.26742554 C151.56069202 275.02012311 154.56078255 275.77727092 157.57315063 276.64242554 C158.22734985 276.81258179 158.88154907 276.98273804 159.55557251 277.15805054 C169.16404401 279.91141038 176.85647783 286.94752678 184.63565063 292.95492554 C191.70077433 298.38486497 198.79700104 303.75228923 206.06777954 308.90487671 C208.82689356 310.88905195 210.60013731 312.40165555 212.51065063 315.26742554 C213.06410975 323.98440667 213.06410975 323.98440667 210.51065063 327.26742554 C206.18034874 330.61742338 202.17161493 330.69439262 196.90141296 330.65510559 C195.60278522 330.6631839 195.60278522 330.6631839 194.27792257 330.6714254 C191.37757071 330.68573039 188.47767361 330.67859497 185.57730103 330.67147827 C183.4976515 330.6771805 181.4180051 330.68414419 179.33836365 330.692276 C173.68963166 330.71023863 168.04105474 330.70903318 162.39230275 330.70333362 C157.67793831 330.70024629 152.96360385 330.70632913 148.24924368 330.71237236 C137.1284276 330.72642615 126.00768832 330.72484915 114.88687134 330.71347046 C103.41074205 330.70198776 91.93484642 330.71606564 80.45874792 330.74286693 C70.60808733 330.76501159 60.75750015 330.7716641 50.90681642 330.76579052 C45.02240082 330.76241688 39.13813501 330.76486318 33.25374031 330.78204155 C27.72068535 330.79748886 22.18797699 330.79357953 16.65493584 330.7747364 C14.62401776 330.77104443 12.59307413 330.77417663 10.56217957 330.78462219 C7.79000902 330.79779203 5.01899265 330.78632014 2.24687195 330.76863098 C1.44287856 330.77823599 0.63888517 330.78784099 -0.18947166 330.79773706 C-5.39549245 330.7293703 -8.3644711 329.71605124 -12.48934937 326.26742554 C-14.84555374 322.73311898 -14.9792655 321.43171267 -14.48934937 317.26742554 C-11.31291897 311.18434377 -6.37495313 307.77737137 -0.92684937 303.76742554 C-0.00098022 303.07616577 0.92488892 302.38490601 1.8788147 301.67269897 C3.80075024 300.23991205 5.72575301 298.81123079 7.65371704 297.38656616 C10.38518695 295.36048867 13.0967547 293.31058571 15.80361938 291.25180054 C17.45550126 290.00639601 19.10782499 288.76157728 20.76065063 287.51742554 C21.50903198 286.94572632 22.25741333 286.3740271 23.0284729 285.78500366 C32.4936784 278.73817879 42.1462855 276.14287236 53.57315063 273.51742554 C60.47221313 271.90867554 60.47221313 271.90867554 67.51065063 270.26742554 C67.84065063 255.41742554 68.17065063 240.56742554 68.51065063 225.26742554 C66.53065063 224.93742554 64.55065063 224.60742554 62.51065063 224.26742554 C54.15001545 220.96657367 47.1840515 216.2226624 40.51065063 210.26742554 C39.40463501 209.30256226 39.40463501 209.30256226 38.27627563 208.31820679 C26.4156388 197.27772037 15.64220258 180.66208138 10.51065063 165.26742554 C9.79111206 165.25807983 9.07157349 165.24873413 8.33023071 165.23910522 C-13.81917865 164.87742432 -31.28344721 162.85783112 -48.10653687 146.90023804 C-60.76722069 132.91122017 -66.31788106 116.03994132 -65.62997437 97.28158569 C-65.29010595 92.41367871 -64.01761383 87.87856832 -62.48934937 83.26742554 C-62.21091187 82.40633179 -61.93247437 81.54523804 -61.64559937 80.65805054 C-55.72588128 64.22572965 -42.92074805 52.63000363 -27.48934937 45.26742554 C-22.68128371 43.39341569 -18.66258253 42.26742554 -13.48934937 42.26742554 C-13.59763062 41.24262085 -13.59763062 41.24262085 -13.70809937 40.19711304 C-14.39631292 32.7223492 -14.65521668 25.27131876 -14.73934937 17.76742554 C-14.77125366 16.33439087 -14.77125366 16.33439087 -14.80380249 14.87240601 C-14.84663945 6.22086994 -14.84663945 6.22086994 -11.48934937 2.26742554 C-7.6344628 -0.30249884 -4.46950657 -0.01679148 0 0 Z " fill="#F9D256" transform="translate(413.4893493652344,206.73257446289063)"/>
<path d="M0 0 C2.57787198 2.57787198 3.10506413 4.84632938 4.24658203 8.31396484 C4.56888794 9.28499901 4.56888794 9.28499901 4.89770508 10.27565002 C5.60718609 12.41878345 6.30775015 14.56471061 7.0078125 16.7109375 C7.49784054 18.20077118 7.98823248 19.69048521 8.47897339 21.18008423 C9.50669057 24.3043254 10.53001563 27.42996222 11.55029297 30.55664062 C12.85805265 34.56315368 14.1765177 38.56604524 15.49829292 42.56795311 C16.51316967 45.64460644 17.5223739 48.72309729 18.52987289 51.80217361 C19.01375887 53.27872254 19.49939839 54.75469799 19.98682022 56.23008347 C20.66771287 58.29397267 21.34094023 60.3602094 22.01220703 62.42724609 C22.39700226 63.60257904 22.78179749 64.77791199 23.17825317 65.98886108 C24 69 24 69 24 73 C49.41 73 74.82 73 101 73 C95.37868481 78.62131519 95.37868481 78.62131519 92.2421875 80.83984375 C91.54383789 81.33830811 90.84548828 81.83677246 90.12597656 82.3503418 C89.3831543 82.874104 88.64033203 83.39786621 87.875 83.9375 C86.26237986 85.08764348 84.65042259 86.23871683 83.0390625 87.390625 C82.20922852 87.98294922 81.37939453 88.57527344 80.52441406 89.18554688 C76.4040558 92.14710419 72.32798086 95.16799901 68.25 98.1875 C61.47521656 103.19642336 54.65781303 108.13809016 47.78515625 113.01171875 C45.49822173 114.64432698 43.23798898 116.30128547 41 118 C41.56868326 122.63174672 42.45004101 126.87122257 43.8984375 131.3046875 C44.2905542 132.51286133 44.6826709 133.72103516 45.08666992 134.96582031 C45.51611105 136.26888094 45.94555447 137.57194082 46.375 138.875 C46.81600043 140.22998405 47.2565023 141.58513047 47.6965332 142.94042969 C50.12651036 150.40282377 52.61770514 157.84332821 55.14453125 165.2734375 C55.65782404 166.78918829 56.17100895 168.30497561 56.68408203 169.82080078 C57.67309398 172.74223055 58.67458755 175.65898454 59.68310547 178.57373047 C60.13680578 179.90838848 60.59011427 181.24317976 61.04296875 182.578125 C61.64661255 184.33237793 61.64661255 184.33237793 62.26245117 186.12207031 C63 189 63 189 62 192 C61.51869629 191.64397705 61.03739258 191.2879541 60.54150391 190.92114258 C47.93869635 181.60388606 35.26896351 172.38515753 22.54492188 163.234375 C20.89033805 162.04421306 19.23611756 160.85354583 17.58227539 159.66235352 C16.03022464 158.54447824 14.47737646 157.42770895 12.92358398 156.31225586 C9.20253214 153.6315806 5.54937353 150.90783647 2 148 C-3.0807187 149.62702779 -6.95267847 152.67737116 -11.1875 155.8125 C-12.80716528 156.99756858 -14.42696053 158.18245956 -16.046875 159.3671875 C-16.87123047 159.97272461 -17.69558594 160.57826172 -18.54492188 161.20214844 C-22.32558447 163.97072435 -26.13296922 166.70187524 -29.9375 169.4375 C-34.71934435 172.88127381 -39.48180084 176.34875046 -44.21484375 179.859375 C-45.0766626 180.49818604 -45.93848145 181.13699707 -46.82641602 181.79516602 C-48.48918435 183.02977827 -50.14992887 184.26712223 -51.80834961 185.50756836 C-52.55995361 186.06581299 -53.31155762 186.62405762 -54.0859375 187.19921875 C-54.7464209 187.69252686 -55.4069043 188.18583496 -56.08740234 188.6940918 C-57.99482014 189.99646323 -59.92769541 190.98792745 -62 192 C-60.05554431 184.67477508 -57.93969496 177.42714409 -55.63671875 170.20703125 C-55.16502007 168.72247688 -55.16502007 168.72247688 -54.68379211 167.20793152 C-54.02191357 165.12774327 -53.35882766 163.04793883 -52.69458008 160.96850586 C-51.69601688 157.83919037 -50.70426439 154.70777126 -49.71289062 151.57617188 C-46.11282316 140.25787736 -42.32935885 129.0612127 -38 118 C-38.76642822 117.71189453 -39.53285645 117.42378906 -40.32250977 117.12695312 C-43.67022216 115.71790412 -46.09765954 113.76327764 -48.9375 111.5 C-53.44839874 107.95264416 -58.003788 104.50363573 -62.6875 101.1875 C-63.25637939 100.784104 -63.82525879 100.38070801 -64.41137695 99.96508789 C-65.61933348 99.10869956 -66.82742729 98.25250485 -68.03564453 97.39648438 C-77.1261884 90.93390534 -86.17288457 84.4032297 -95.125 77.75 C-96.55199219 76.69039062 -96.55199219 76.69039062 -98.0078125 75.609375 C-98.66523437 75.07828125 -99.32265625 74.5471875 -100 74 C-100 73.67 -100 73.34 -100 73 C-74.59 73 -49.18 73 -23 73 C-22.34 70.03 -21.68 67.06 -21 64 C-20.52231884 62.30890583 -20.01924663 60.62449352 -19.4765625 58.953125 C-19.18338135 58.04312744 -18.8902002 57.13312988 -18.58813477 56.19555664 C-18.27030029 55.22352295 -17.95246582 54.25148926 -17.625 53.25 C-17.28847412 52.21029053 -16.95194824 51.17058105 -16.60522461 50.09936523 C-15.84418105 47.74976345 -15.08128594 45.40076087 -14.31689453 43.05224609 C-13.09210212 39.28772602 -11.87592251 35.52045666 -10.66088867 31.7527771 C-9.56809811 28.36445209 -8.47364952 24.97666408 -7.37884521 21.58898926 C-6.8349147 19.90559039 -6.29133519 18.22207808 -5.74810791 16.53845215 C-4.98082786 14.16182552 -4.21141237 11.78590083 -3.44140625 9.41015625 C-3.09347267 8.33058403 -3.09347267 8.33058403 -2.73851013 7.22920227 C-1.11436091 2.22872182 -1.11436091 2.22872182 0 0 Z " fill="#CBD4C4" transform="translate(791,301)"/>
<path d="M0 0 C0.66 0 1.32 0 2 0 C2.39268066 1.23862793 2.78536133 2.47725586 3.18994141 3.75341797 C4.67591826 8.43938682 6.16364901 13.12479741 7.65185547 17.81005859 C8.2903396 19.82097926 8.92837563 21.83204227 9.56591797 23.84326172 C10.49322637 26.76829909 11.42197632 29.69287325 12.3515625 32.6171875 C12.65628479 33.57655212 12.96100708 34.53591675 13.27496338 35.52435303 C14.74904989 40.14706714 16.24577041 44.75993692 17.79980469 49.35644531 C18.08036713 50.1864505 18.36092957 51.01645569 18.6499939 51.87161255 C19.17627463 53.42019258 19.7066553 54.96738759 20.24185181 56.51290894 C21.24960012 59.47158539 22 61.85020856 22 65 C44.11 65 66.22 65 89 65 C83.37414966 70.62585034 83.37414966 70.62585034 79.98828125 73.09375 C79.23933594 73.64272949 78.49039063 74.19170898 77.71875 74.75732422 C76.9246875 75.33240723 76.130625 75.90749023 75.3125 76.5 C74.48105469 77.10730957 73.64960938 77.71461914 72.79296875 78.34033203 C70.19918591 80.23228503 67.60045629 82.11723236 65 84 C64.1857959 84.59006836 63.3715918 85.18013672 62.53271484 85.78808594 C58.71562648 88.55269406 54.89482989 91.31208539 51.0703125 94.06640625 C46.03411612 97.69345651 41.01597632 101.34504733 36 105 C39.89937299 117.41973318 43.86537887 129.8161686 47.89697266 142.19360352 C48.76417343 144.85601413 49.63022662 147.51879602 50.49609375 150.18164062 C51.05462323 151.89845841 51.61321459 153.61525607 52.171875 155.33203125 C52.42708923 156.11641068 52.68230347 156.9007901 52.94525146 157.7089386 C54.28158453 161.81115017 55.62993168 165.90889149 57 170 C53.31172955 168.33404209 50.13479266 166.0543707 46.875 163.6875 C46.26809326 163.25018555 45.66118652 162.81287109 45.03588867 162.36230469 C43.71589484 161.41059229 42.39683919 160.45757762 41.07861328 159.50341797 C38.9706226 157.97875193 36.85879582 156.45953566 34.74609375 154.94140625 C34.02075439 154.4191748 33.29541504 153.89694336 32.5480957 153.35888672 C31.05174502 152.28201099 29.55417498 151.20682766 28.05541992 150.13330078 C23.91447854 147.15442785 19.83452349 144.11617296 15.8046875 140.98828125 C14.94963623 140.33311523 14.09458496 139.67794922 13.21362305 139.00292969 C11.55759374 137.73085846 9.91268076 136.44415353 8.28051758 135.14160156 C4.24584443 131.80066342 4.24584443 131.80066342 -0.671875 131.33984375 C-3.48068971 133.3427737 -6.23828855 135.34879995 -8.9375 137.5 C-13.44838063 141.04734161 -18.00355603 144.49670906 -22.6875 147.8125 C-29.0849623 152.34285649 -35.44200356 156.92660857 -41.78393555 161.53442383 C-45.80237346 164.4455349 -49.84906029 167.28087177 -54 170 C-52.60197389 163.22997316 -50.75543261 156.73073433 -48.62890625 150.15625 C-48.30591049 149.14711548 -47.98291473 148.13798096 -47.65013123 147.0982666 C-46.62464746 143.89763474 -45.59360769 140.69882391 -44.5625 137.5 C-43.87399466 135.35297817 -43.18584043 133.20584371 -42.49804688 131.05859375 C-39.70759835 122.35800274 -36.90854988 113.66195878 -34 105 C-34.49482376 104.64414825 -34.98964752 104.28829651 -35.49946594 103.92166138 C-45.06158405 97.04354392 -54.59051589 90.12310406 -64.0612793 83.11962891 C-67.86085144 80.31013341 -71.66663581 77.5108561 -75.49609375 74.7421875 C-76.19452393 74.23574707 -76.8929541 73.72930664 -77.61254883 73.20751953 C-78.92112642 72.25978106 -80.23204377 71.31526191 -81.5456543 70.37451172 C-85.88846497 67.22307005 -85.88846497 67.22307005 -87 65 C-64.89 65 -42.78 65 -20 65 C-19.34 62.03 -18.68 59.06 -18 56 C-17.44266064 54.07947804 -16.85548204 52.16716249 -16.22827148 50.26831055 C-15.89129745 49.24082199 -15.55432343 48.21333344 -15.20713806 47.15470886 C-14.84874344 46.07627213 -14.49034882 44.99783539 -14.12109375 43.88671875 C-13.56289696 42.18875908 -13.56289696 42.18875908 -12.99342346 40.45649719 C-11.81216987 36.86548069 -10.62512996 33.27641219 -9.4375 29.6875 C-8.24731641 26.08040957 -7.05836065 22.47292064 -5.87086487 18.86494446 C-5.13367258 16.62622529 -4.39475148 14.38807449 -3.65391541 12.15055847 C-3.32009354 11.13883072 -2.98627167 10.12710297 -2.64233398 9.0847168 C-2.34858383 8.19697067 -2.05483368 7.30922455 -1.75218201 6.39457703 C-1.08631522 4.27478515 -0.51061603 2.16170133 0 0 Z " fill="#CBD4C4" transform="translate(164,222)"/>
<path d="M0 0 C0.66 0 1.32 0 2 0 C2.4031543 1.23975586 2.80630859 2.47951172 3.22167969 3.75683594 C4.73458511 8.40883491 6.24806972 13.06064528 7.76171875 17.71240234 C8.41356657 19.71593262 9.06526265 21.71951226 9.71679688 23.72314453 C10.6597452 26.62285526 11.60323887 29.52238803 12.546875 32.421875 C12.85040894 33.35543823 13.15394287 34.28900146 13.4666748 35.25085449 C15.39408261 41.16990087 17.35642586 47.07491234 19.37988281 52.96191406 C20 55 20 55 20 57 C39.8 57 59.6 57 80 57 C74.37414966 62.62585034 74.37414966 62.62585034 70.98828125 65.09375 C70.23877197 65.64313232 69.4892627 66.19251465 68.71704102 66.75854492 C67.92354248 67.3332251 67.13004395 67.90790527 66.3125 68.5 C65.48613037 69.10368408 64.65976074 69.70736816 63.80834961 70.3293457 C61.20956134 72.22513253 58.60570338 74.11373113 56 76 C55.14857422 76.61665527 54.29714844 77.23331055 53.41992188 77.86865234 C48.85356323 81.17353237 44.28353386 84.47321004 39.70361328 87.75927734 C38.32173949 88.7656807 36.96692126 89.8091602 35.62109375 90.86328125 C34 92 34 92 32 92 C32.22550537 92.68238235 32.45101074 93.36476471 32.68334961 94.06782532 C34.80690999 100.49639073 36.9262108 106.92634613 39.04072571 113.35789204 C40.12798916 116.66442485 41.21689722 119.97039701 42.30957031 123.27514648 C43.56545166 127.07375507 44.81416458 130.87468611 46.0625 134.67578125 C46.45622803 135.86335526 46.84995605 137.05092926 47.25561523 138.27449036 C47.61598877 139.37540512 47.9763623 140.47631989 48.34765625 141.6105957 C48.66742432 142.58100296 48.98719238 143.55141022 49.31665039 144.55122375 C50 147 50 147 50 150 C44.69550756 148.35888957 40.67975355 144.98854252 36.3125 141.6875 C34.61775318 140.42241892 32.92242561 139.15811553 31.2265625 137.89453125 C30.36321289 137.2495166 29.49986328 136.60450195 28.61035156 135.93994141 C24.49559534 132.88196788 20.34447314 129.87521251 16.1875 126.875 C15.08692261 126.07775513 15.08692261 126.07775513 13.96411133 125.2644043 C12.60027783 124.27986083 11.23274553 123.30041225 9.86083984 122.32714844 C8.66170657 121.47192822 7.47342632 120.60117675 6.29931641 119.71191406 C3.4783115 117.52910751 3.4783115 117.52910751 0.07348633 117.23291016 C-2.26952028 118.09970949 -3.92032155 119.19821295 -5.9140625 120.703125 C-6.66647217 121.26515625 -7.41888184 121.8271875 -8.1940918 122.40625 C-8.9962915 123.0146875 -9.79849121 123.623125 -10.625 124.25 C-12.33140595 125.52687774 -14.03845351 126.80289841 -15.74609375 128.078125 C-16.6160498 128.72974609 -17.48600586 129.38136719 -18.38232422 130.05273438 C-23.16696404 133.61198519 -28.01578029 137.08193464 -32.85986328 140.55957031 C-37.61765727 143.98197973 -42.32403646 147.4665973 -47 151 C-47.66 150.67 -48.32 150.34 -49 150 C-48.70343506 149.11554199 -48.40687012 148.23108398 -48.10131836 147.31982422 C-45.44362491 139.38737824 -42.79720045 131.451322 -40.16532898 123.51026917 C-38.67499726 119.01755252 -37.16438209 114.53230243 -35.640625 110.05078125 C-34.98886361 108.09659406 -34.33776405 106.14218594 -33.6875 104.1875 C-33.37997803 103.3011084 -33.07245605 102.4147168 -32.75561523 101.50146484 C-32.48950439 100.69016113 -32.22339355 99.87885742 -31.94921875 99.04296875 C-31.71549561 98.35227295 -31.48177246 97.66157715 -31.2409668 96.94995117 C-30.91970316 94.35022206 -31.58657435 93.17189732 -33 91 C-34.97200724 89.40654772 -36.90736391 87.97779963 -39 86.5625 C-40.26876401 85.68045633 -41.53696511 84.79760258 -42.8046875 83.9140625 C-43.48241211 83.44516602 -44.16013672 82.97626953 -44.85839844 82.49316406 C-48.64588419 79.85245922 -52.38425501 77.14382295 -56.125 74.4375 C-56.88482178 73.88803711 -57.64464355 73.33857422 -58.42749023 72.77246094 C-62.98604705 69.47091154 -67.54013616 66.16350889 -72.0625 62.8125 C-73.00222656 62.11769531 -73.94195313 61.42289063 -74.91015625 60.70703125 C-77 59 -77 59 -78 57 C-58.2 57 -38.4 57 -18 57 C-16.515 51.555 -16.515 51.555 -15 46 C-14.44553561 44.17062132 -13.87779217 42.34505817 -13.2824707 40.52856445 C-12.98238602 39.6084407 -12.68230133 38.68831696 -12.37312317 37.74031067 C-12.06050034 36.79089096 -11.7478775 35.84147125 -11.42578125 34.86328125 C-10.9327375 33.35510078 -10.9327375 33.35510078 -10.42973328 31.81645203 C-9.39317382 28.64763687 -8.35290578 25.48005413 -7.3125 22.3125 C-6.60326858 20.14656525 -5.89428198 17.98055033 -5.18554688 15.81445312 C-3.45985694 10.54203963 -1.73113166 5.27062912 0 0 Z " fill="#CBD4C4" transform="translate(683,39)"/>
<path d="M0 0 C2 1 2 1 3.33203125 4.7265625 C3.83288716 6.35713049 4.32587157 7.99012955 4.8125 9.625 C5.34125379 11.3571358 5.8712185 13.08890238 6.40234375 14.8203125 C6.66772949 15.68946289 6.93311523 16.55861328 7.20654297 17.45410156 C8.73837014 22.3691458 10.43546736 27.22839612 12.1171875 32.09375 C13 35 13 35 13 38 C26.2 38 39.4 38 53 38 C49.65298239 41.34701761 46.34920303 44.01250471 42.5 46.6875 C36.6659052 50.78492685 30.96913167 55.0238528 25.328125 59.3828125 C23 61 23 61 21 61 C21.36351562 62.08007324 21.72703125 63.16014648 22.1015625 64.27294922 C23.44638631 68.27128584 24.78727037 72.27093427 26.12695312 76.27099609 C26.70790528 78.00378013 27.28993274 79.73620403 27.87304688 81.46826172 C28.70984713 83.95446929 29.54280229 86.44193615 30.375 88.9296875 C30.63748535 89.70682098 30.8999707 90.48395447 31.17041016 91.28463745 C33 96.77225659 33 96.77225659 33 99 C28.02592458 97.41252912 24.38320619 94.46272617 20.3125 91.3125 C18.88734275 90.2309481 17.46156214 89.1502171 16.03515625 88.0703125 C13.64630546 86.25369169 11.25869025 84.43545699 8.87109375 82.6171875 C8.00613281 81.98039062 7.14117187 81.34359375 6.25 80.6875 C5.51265625 80.13449219 4.7753125 79.58148438 4.015625 79.01171875 C2.08918088 77.804475 2.08918088 77.804475 0.12036133 78.27050781 C-2.26479243 79.09109957 -3.91174784 80.16509867 -5.94140625 81.66015625 C-6.68535645 82.20325439 -7.42930664 82.74635254 -8.19580078 83.3059082 C-8.97681152 83.8855835 -9.75782227 84.46525879 -10.5625 85.0625 C-11.76108643 85.94071411 -11.76108643 85.94071411 -12.98388672 86.83666992 C-14.58336624 88.00907259 -16.18105591 89.18392142 -17.77685547 90.36132812 C-20.71517931 92.52715611 -23.66956078 94.67009556 -26.625 96.8125 C-28.08357154 97.87467297 -29.5420161 98.93702055 -31 100 C-32.40304634 97.19390732 -31.37307422 95.51958206 -30.43617249 92.66651917 C-30.19039963 91.9425444 -29.94462677 91.21856964 -29.69140625 90.47265625 C-29.32304909 89.35557533 -29.32304909 89.35557533 -28.94725037 88.21592712 C-28.15934569 85.82905918 -27.36167082 83.44561732 -26.5625 81.0625 C-25.76793284 78.68264048 -24.97556056 76.30212483 -24.1884613 73.91978455 C-23.69784169 72.43580027 -23.20274906 70.95328588 -22.70277405 69.47242737 C-21.72540412 66.52432799 -21 64.12841549 -21 61 C-22.96569919 59.38136957 -24.89147928 57.9735178 -27 56.5625 C-28.27471368 55.68153121 -29.54809575 54.79863331 -30.8203125 53.9140625 C-31.49610352 53.44645508 -32.17189453 52.97884766 -32.86816406 52.49707031 C-36.59083354 49.88284571 -40.23358531 47.16323011 -43.875 44.4375 C-44.93654297 43.65064819 -44.93654297 43.65064819 -46.01953125 42.84790039 C-47.69896388 41.59061227 -49.35244826 40.29878429 -51 39 C-51 38.67 -51 38.34 -51 38 C-38.13 37.67 -25.26 37.34 -12 37 C-8.42307656 25.57211173 -8.42307656 25.57211173 -4.84985352 14.14306641 C-4.40133877 12.71252298 -3.95269831 11.28201895 -3.50390625 9.8515625 C-3.27151245 9.10608154 -3.03911865 8.36060059 -2.79968262 7.5925293 C-1.1140718 2.2281436 -1.1140718 2.2281436 0 0 Z " fill="#CBD4C3" transform="translate(244,122)"/>
<path d="M0 0 C7.43483787 0.66297917 11.84346563 2.77452026 18 7 C19.051875 7.721875 20.10375 8.44375 21.1875 9.1875 C29.75495656 17.75495656 34.07455557 27.45577608 34.375 39.4375 C34.04728958 53.10575539 29.03553435 62.79133923 19.203125 72.2109375 C9.13432749 80.38737236 -1.5047913 81.34285634 -14 81 C-13.35917647 74.4527909 -11.87675595 68.34834124 -10.1875 62 C-4.9464628 41.60529044 -2.31410366 20.90158145 0 0 Z " fill="#93BF69" transform="translate(624,270)"/>
<path d="M0 0 C1.44450524 2.88901047 1.47177815 5.65884048 1.8125 8.875 C4.30666684 30.74729183 7.77190338 51.91009026 13.30737305 73.21459961 C13.95013445 75.79946561 14.50121028 78.38397209 15 81 C1.42661273 81.65943582 -9.14991829 79.85679018 -20 71 C-27.48334383 64.13523903 -32.6168615 54.67545151 -33.203125 44.4609375 C-33.46138412 31.1115564 -31.42144276 20.87639711 -21.9609375 10.8359375 C-15.8571145 5.07720697 -8.73947199 -0.49585657 0 0 Z " fill="#92BF69" transform="translate(401,270)"/>
<path d="M0 0 C2.01003635 3.01505452 2.99171541 5.57496212 4.125 9 C4.47820312 10.051875 4.83140625 11.10375 5.1953125 12.1875 C6 15 6 15 6 18 C11.94 18 17.88 18 24 18 C20.82270675 21.17729325 18.21605594 23.74084058 14.6875 26.3125 C13.99011719 26.82425781 13.29273438 27.33601563 12.57421875 27.86328125 C12.05472656 28.23839844 11.53523438 28.61351562 11 29 C11.20496094 29.72445313 11.40992188 30.44890625 11.62109375 31.1953125 C12.99054223 36.10960129 14.31532637 40.93341513 15 46 C11.16336928 44.65070536 8.34827431 42.92248975 5.1875 40.375 C4.39730469 39.74335937 3.60710937 39.11171875 2.79296875 38.4609375 C2.20128906 37.97882813 1.60960937 37.49671875 1 37 C-2.58513106 38.62184501 -5.58992323 40.79256239 -8.75 43.125 C-9.73484375 43.84945312 -10.7196875 44.57390625 -11.734375 45.3203125 C-12.85585938 46.15175781 -12.85585938 46.15175781 -14 47 C-15.68550367 43.62899267 -13.68863036 40.27985368 -12.5625 36.875 C-12.19801758 35.74384766 -12.19801758 35.74384766 -11.82617188 34.58984375 C-11.22404181 32.72442121 -10.61286537 30.86192317 -10 29 C-11.010625 28.28972656 -12.02125 27.57945312 -13.0625 26.84765625 C-14.37512278 25.91944443 -15.68761614 24.99104959 -17 24.0625 C-17.66773438 23.59392578 -18.33546875 23.12535156 -19.0234375 22.64257812 C-20.70029767 21.45337627 -22.35238787 20.22940446 -24 19 C-24 18.67 -24 18.34 -24 18 C-18.06 17.67 -12.12 17.34 -6 17 C-4.39609513 11.78047191 -4.39609513 11.78047191 -2.79907227 6.55883789 C-1.11111111 1.11111111 -1.11111111 1.11111111 0 0 Z " fill="#CAD4C2" transform="translate(274,473)"/>
<path d="M0 0 C2.59947787 2.59947787 3.0684435 4.92738453 4.125 8.4375 C4.47820312 9.59121094 4.83140625 10.74492188 5.1953125 11.93359375 C6 15 6 15 6 18 C11.94 18 17.88 18 24 18 C19.93887294 22.06112706 16.68404114 24.90676528 12 28 C11.34 28 10.68 28 10 28 C10.44472656 29.20398438 10.88945312 30.40796875 11.34765625 31.6484375 C11.91966802 33.22381417 12.49126099 34.79934296 13.0625 36.375 C13.35705078 37.1690625 13.65160156 37.963125 13.95507812 38.78125 C14.22900391 39.54179687 14.50292969 40.30234375 14.78515625 41.0859375 C15.04176025 41.7876709 15.29836426 42.4894043 15.56274414 43.21240234 C16 45 16 45 15 47 C10.38 43.7 5.76 40.4 1 37 C-4.64808081 40.18874007 -4.64808081 40.18874007 -9.9375 43.75 C-10.948125 44.4925 -11.95875 45.235 -13 46 C-14.56393356 42.02623171 -13.36145292 39.18622097 -12.0625 35.25 C-11.49208984 33.49429688 -11.49208984 33.49429688 -10.91015625 31.703125 C-10.60980469 30.81109375 -10.30945313 29.9190625 -10 29 C-10.9384375 28.28972656 -11.876875 27.57945313 -12.84375 26.84765625 C-14.06262553 25.91943565 -15.28136874 24.99104128 -16.5 24.0625 C-17.12003906 23.59392578 -17.74007813 23.12535156 -18.37890625 22.64257812 C-19.93766786 21.45209536 -21.47109164 20.22858708 -23 19 C-23 18.67 -23 18.34 -23 18 C-17.06 18 -11.12 18 -5 18 C-4.67 16.02 -4.34 14.04 -4 12 C-3.35250065 9.86247203 -2.66485947 7.73668877 -1.9375 5.625 C-1.57527344 4.56539063 -1.21304687 3.50578125 -0.83984375 2.4140625 C-0.56269531 1.61742188 -0.28554688 0.82078125 0 0 Z " fill="#D4D7D1" transform="translate(461,97)"/>
<path d="M0 0 C2 1 2 1 3.2890625 4.59765625 C3.74360389 6.08314486 4.18695284 7.57206416 4.625 9.0625 C5.40875 11.681875 6.1925 14.30125 7 17 C12.61 17.33 18.22 17.66 24 18 C19.96080655 22.03919345 16.60212178 24.84168113 12 28 C12.53176041 32.99854788 13.68550815 37.28491129 15.4765625 41.984375 C16 44 16 44 15 47 C14.11957031 46.25492188 13.23914063 45.50984375 12.33203125 44.7421875 C11.15962936 43.78550756 9.98640902 42.82982999 8.8125 41.875 C8.23435547 41.38128906 7.65621094 40.88757813 7.06054688 40.37890625 C5.14434251 38.77682731 5.14434251 38.77682731 2 37 C-2.01187449 37.72503756 -5.03323795 40.26393133 -8.3125 42.625 C-9.19550781 43.25664062 -10.07851563 43.88828125 -10.98828125 44.5390625 C-11.65214844 45.02117187 -12.31601562 45.50328125 -13 46 C-14.35814777 41.9255567 -12.94745762 39.18531884 -11.5625 35.3125 C-11.31951172 34.61060547 -11.07652344 33.90871094 -10.82617188 33.18554688 C-10.2255056 31.45421468 -9.61380281 29.72671863 -9 28 C-9.55171875 27.74347656 -10.1034375 27.48695313 -10.671875 27.22265625 C-13.35467062 25.81373842 -15.76817968 24.17549991 -18.25 22.4375 C-19.14203125 21.81746094 -20.0340625 21.19742188 -20.953125 20.55859375 C-21.62859375 20.04425781 -22.3040625 19.52992188 -23 19 C-23 18.67 -23 18.34 -23 18 C-17.06 18 -11.12 18 -5 18 C-4.54625 16.14375 -4.0925 14.2875 -3.625 12.375 C-2.57902772 8.18119645 -1.46951385 4.06942297 0 0 Z " fill="#CAD4C2" transform="translate(822,181)"/>
<path d="M0 0 C2 1 2 1 3.0703125 3.80078125 C3.41835938 4.95964844 3.76640625 6.11851563 4.125 7.3125 C4.47820312 8.46363281 4.83140625 9.61476563 5.1953125 10.80078125 C6 14 6 14 6 18 C11.94 18 17.88 18 24 18 C19.96080655 22.03919345 16.60212178 24.84168113 12 28 C12.53176041 32.99854788 13.68550815 37.28491129 15.4765625 41.984375 C16 44 16 44 15 47 C14.11957031 46.25492188 13.23914063 45.50984375 12.33203125 44.7421875 C11.15962936 43.78550756 9.98640902 42.82982999 8.8125 41.875 C8.23435547 41.38128906 7.65621094 40.88757813 7.06054688 40.37890625 C5.14434251 38.77682731 5.14434251 38.77682731 2 37 C-1.97255981 37.70728068 -4.61735523 40.09173963 -7.6875 42.625 C-11.78571429 46 -11.78571429 46 -14 46 C-12.75971762 39.82777121 -11.10396411 33.93317878 -9 28 C-9.55171875 27.74347656 -10.1034375 27.48695312 -10.671875 27.22265625 C-13.35467062 25.81373842 -15.76817968 24.17549991 -18.25 22.4375 C-19.14203125 21.81746094 -20.0340625 21.19742188 -20.953125 20.55859375 C-21.62859375 20.04425781 -22.3040625 19.52992187 -23 19 C-23 18.67 -23 18.34 -23 18 C-17.06 18 -11.12 18 -5 18 C-4.5978125 16.0509375 -4.5978125 16.0509375 -4.1875 14.0625 C-3.12555237 9.24935606 -1.64596736 4.64162796 0 0 Z " fill="#CAD4C2" transform="translate(285,38)"/>
</svg>
